<svg
    id="Layer_1"
    xmlns="http://www.w3.org/2000/svg"
    viewBox="0 0 181 31"
    width="190px"
    >
    <title class="title-hidden">specbee-modified-logo</title>
    <g id="Layer_2_1_">
    <g id="Layer_1-2">
        <path
        class="st0"
        d="M15.5 0C6.9 0 0 7 0 15.5S7 31 15.5 31C24.1 31 31 24 31 15.5 31 6.9 24.1 0 15.5 0zm0 29.5c-7.7 0-14-6.3-14-14s6.3-14 14-14 14 6.3 14 14-6.3 14-14 14z"
        ></path>
        <path
        class="st0"
        d="M15.4 2.9C11.2 3 7.3 5 5 8.5c-.2.3-.4.7-.6 1-2 3.7-2 8.3 0 12 3.3 6.1 10.9 8.4 17 5.1s8.4-10.9 5.1-17C24.3 5.4 20 2.9 15.4 2.9zm9.1 16c0 1-.5 1.9-1.4 2.5L17 25c-.9.5-1.9.5-2.8 0L8 21.6c-.9-.5-1.4-1.4-1.4-2.4l-.1-7c0-1 .5-2 1.4-2.5L14 6.1c.9-.5 1.9-.5 2.8 0L23 9.5c.9.5 1.4 1.4 1.4 2.4l.1 7zm16.6-4.4c-.9-.4-1.8-1-2.5-1.8-.4-.4-.6-1-.6-1.5 0-.6.3-1.2.7-1.6.5-.4 1.1-.6 1.8-.6 1.3.1 2.4.7 3.3 1.7l1.3-1.5c-1.2-1.3-2.8-2.1-4.5-2.2-1.2 0-2.3.4-3.2 1.2-.8.8-1.3 2-1.3 3.1 0 .9.3 1.8.8 2.6.8 1 1.8 1.8 3 2.3 1 .4 1.9 1 2.6 1.8.4.5.6 1 .6 1.6 0 .7-.3 1.4-.9 1.9-.6.5-1.4.8-2.2.8-1.4-.1-2.6-.8-3.4-1.8L35.4 22c.6.7 1.3 1.3 2.1 1.7.8.4 1.8.6 2.7.6 1.3.1 2.6-.4 3.5-1.3.9-.9 1.4-2.2 1.4-3.5 0-.9-.3-1.8-.8-2.6-.9-1-2-1.8-3.2-2.4zM59.8 7c-1.3 0-2.5.3-3.6.9-1.1.6-2.1 1.5-2.9 2.6v-3h-2.1V30h2.1v-8.9c.8 1 1.8 1.9 2.9 2.5 3.2 1.6 7 .9 9.5-1.7 1.6-1.7 2.5-3.9 2.4-6.2 0-2.3-.9-4.5-2.5-6.1C64.2 7.9 62.1 7 59.8 7zm5.4 12c-.6 1-1.4 1.9-2.4 2.5-1 .6-2.1.9-3.2.9s-2.3-.3-3.3-.9c-1-.6-1.8-1.4-2.4-2.4-.6-1-.9-2.2-.8-3.4 0-1.8.6-3.5 1.9-4.8 1.2-1.3 2.8-2 4.6-1.9 1.1 0 2.3.3 3.2.9 1 .6 1.8 1.4 2.3 2.4 1.3 2.1 1.3 4.6.1 6.7zm23.6-8.8c-1.6-2.1-4-3.3-6.7-3.2-2.5-.1-4.9 1.1-6.5 3.1-2.7 3.5-2.5 8.3.3 11.6 1.6 1.8 3.9 2.8 6.2 2.6 1.1 0 2.2-.2 3.2-.5.9-.4 1.8-.9 2.6-1.6.8-.8 1.5-1.8 2-2.8l-1.8-1c-.5.9-1.1 1.7-1.8 2.3-.6.5-1.3.9-2 1.2-.8.3-1.6.4-2.4.4-1.6 0-3.2-.6-4.3-1.9-1.2-1.3-1.8-3-1.8-4.8h14.6c.3-1.8-.4-3.8-1.6-5.4zM76.2 14c.3-1.3 1-2.5 1.9-3.4 1.1-1 2.6-1.6 4.1-1.6 1 0 1.9.2 2.8.6.8.4 1.5.9 2.1 1.6.6.8 1 1.7 1.2 2.7H76.2zM111 8.8c-.8-.6-1.6-1-2.6-1.3-2.6-.8-5.4-.6-7.8.6-1.4.8-2.5 1.9-3.3 3.2-.8 1.4-1.2 2.9-1.2 4.5 0 2.3.9 4.5 2.5 6.1 1.7 1.7 4 2.6 6.4 2.5 1.6 0 3.1-.3 4.5-1 1.3-.6 2.4-1.6 3.1-2.8l-1.7-1.1c-2.2 2.9-6.2 3.7-9.4 2-1-.6-1.9-1.4-2.5-2.5-.6-1-.9-2.2-.9-3.4 0-1.8.7-3.5 2-4.7 1.3-1.3 3.1-1.9 4.9-1.9 2.3-.1 4.5 1 5.9 2.9l1.7-1c-.3-.8-.9-1.5-1.6-2.1zm1.8 2zm11.6-3c-1.2.6-2.2 1.4-2.9 2.5V1h-2.1v22.9h2.1v-3c.7 1.1 1.7 2 2.8 2.6 1.1.6 2.3.9 3.6.9 2.2 0 4.4-.9 5.9-2.5 1.6-1.6 2.5-3.8 2.5-6.1s-.8-4.5-2.4-6.2c-2.4-2.7-6.3-3.4-9.5-1.8zm9 11.2c-.6 1-1.4 1.8-2.4 2.4-1 .6-2.1.9-3.2.9-1.7 0-3.4-.7-4.6-1.9-1.2-1.3-1.9-3-1.9-4.8 0-1.2.3-2.4.8-3.4.6-1 1.4-1.8 2.4-2.4 1-.6 2.1-.9 3.3-.9 1.1 0 2.2.3 3.2.9 1 .6 1.8 1.5 2.4 2.5 1.1 2 1.1 4.6 0 6.7zm23.4-8.8c-1.6-2.1-4-3.3-6.6-3.2-2.5-.1-4.9 1.1-6.5 3.1-2.7 3.5-2.5 8.3.4 11.6 1.6 1.8 3.9 2.8 6.2 2.6 1.1 0 2.2-.2 3.2-.5.9-.4 1.8-.9 2.6-1.6.8-.8 1.5-1.8 2-2.8l-1.8-1c-.5.9-1.1 1.7-1.8 2.3-.6.5-1.3.9-2 1.2-.8.3-1.6.4-2.4.4-1.6 0-3.2-.6-4.3-1.9-1.2-1.3-1.8-3-1.8-4.8h14.6c.1-1.8-.5-3.8-1.8-5.4zm-.5 3.8h-12.1c.3-1.3 1-2.5 1.9-3.4 1.1-1 2.6-1.6 4.1-1.6 1 0 1.9.2 2.8.6.8.4 1.6.9 2.1 1.6.6.9 1 1.8 1.2 2.8zm22.4 4.5c-.5.9-1.1 1.7-1.8 2.3-.6.5-1.3.9-2 1.2-.8.3-1.6.4-2.4.4-1.6 0-3.2-.6-4.3-1.9-1.2-1.3-1.8-3-1.8-4.7H181c.1-2-.6-4-1.8-5.7-1.6-2.1-4-3.3-6.6-3.2-2.5-.1-4.9 1.1-6.5 3.1-1.2 1.6-1.9 3.6-1.9 5.6 0 2.2.8 4.3 2.2 6 1.6 1.8 3.9 2.8 6.2 2.6 1.1 0 2.2-.2 3.2-.5.9-.4 1.8-.9 2.6-1.6.8-.8 1.5-1.8 2-2.8l-1.7-.8zm-10.2-7.9c1.1-1 2.6-1.6 4.1-1.6 1 0 1.9.2 2.8.6.8.4 1.5.9 2.1 1.6.6.8 1 1.7 1.2 2.7h-12.1c.3-1.2.9-2.4 1.9-3.3z"
        ></path>
    </g>
    </g>
    </svg>
